M48
;Layer_Color=9474304
;FILE_FORMAT=4:4
METRIC,LZ
;TYPE=PLATED
T01F00S00C0.3000
T02F00S00C0.5000
T03F00S00C0.8000
T04F00S00C0.9652
T05F00S00C1.0000
T06F00S00C1.3000
;TYPE=NON_PLATED
T07F00S00C3.2000
%
T01
X01588Y00645
X0158
X01557
X01549
X0092Y00623
X00912
X00869Y00622
X00861
Y0057
X00869
X00912Y00569
X0092
X0151Y01045
X01518
X01519Y01065
X01511
X01525Y01098
X01533
X01569Y01093
X01577Y01092
X01565Y01086
X01578Y01144
X01561Y01168
Y01176
X01531
Y01168
X01523Y01148
Y0114
X01609Y01045
X01621Y0103
Y01022
X01764Y01012
Y01004
X01785Y01
Y00992
X0175Y01048
Y01056
X01756Y01089
X01764
X01686Y01184
X0168Y01179
X0265Y0101
X02658
X02636Y00952
Y00944
X01763Y01224
Y01232
X01727
Y0124
X01562Y01202
Y01194
X01528
X0152
T02
X03255Y00573
X03265Y00573
X0321088Y00672338
X0319564Y0068453
X03245Y0072
X03106Y00735
X03106Y00745
X03104454Y00684276
X0308896Y00672338
X0300088
X0298564Y0068453
X02894454Y00684276
X0287896Y00672338
X02896Y00735
X02896Y00745
X0279088Y00672338
X0277564Y0068453
X02684454Y00684276
X0266896Y00672338
X02686Y00735
X02686Y00745
X02578Y00776
Y00786
X02534Y00721
X0250088Y00672338
X0248564Y0068453
X02394454Y00684276
X02396Y00735
X02396Y00745
X0237896Y00672338
X0229088
X0227564Y0068453
X02184454Y00684276
X0216896Y00672338
X02186Y00735
X02186Y00745
X0208088Y00672338
X0206564Y0068453
X01974454Y00684276
X0195896Y00672338
X01976Y00735
Y00745
X01628Y00775
X01532Y00762
X01587Y0069
Y0068
X01558945Y00618455
X01523629Y00618263
X01546Y00543
X01556
X01438188Y00601342
X01415Y00601
Y00591
X01396Y0057
Y00663
X01386Y00683
X01239Y0056
X01221333
X01203667
X01186
X0113377Y0072655
X01069Y00791
X01059
X00742Y00789
X00761Y00756
Y00746
X00711Y00718
X00701
X00682Y0074
Y00773
X00648Y00772
Y00744
X00638
X00477Y00562428
X0046
X00443
X00426
X0045Y0104
X00476Y01036
X00504Y01037
X00509Y0106
Y0109
Y01117
X00504Y01136
X00516
X00528
Y01174
X00516
X00504
X0049Y0118
X0045Y01179
X00447Y01163
Y01147
Y01135
X00434
X00447Y01109
Y01071
X00767Y01046
X00776
X00785
Y01036
X00776
X00767
X00686Y0095
X00676
X00686Y00926
X00742Y00799
X0098Y00797
Y00807
X01004062Y00807146
X01059Y00816
Y00826
X01074Y00821
Y00811
X00794Y01036
Y01046
X00812Y01128
X00821
X0083
X00839
Y01138
X0083
X00821
X00812
X01447Y01161
Y01174
X01493Y01173
Y01161
X0146Y01058
X0145
Y00992
X0146
Y00968
X0145
X01451Y00902
X01461
X0152967Y0081933
X01558Y01048
Y01058
X01609Y0107
X01686Y01058
X017Y0103
X0171
X01715Y00971
X01821Y00979
Y01092
X0181Y01094
X0175Y01145
Y01155
X01697Y01135
X01641Y01147
X01621
X01607Y00828
Y00818
X01977Y00806
Y00796
X02065386Y00807212
X02080372Y00819912
X02187Y00806
X02187Y00796
X02275386Y00807212
X02290372Y00819912
X02397Y00806
X02397Y00796
X02485386Y00807212
X02500372Y00819912
X02687Y00806
X02687Y00796
X02775386Y00807212
X0271Y00952
X027
Y0099
X0271
X0278Y0091
X0279
X02790372Y00819912
X02897Y00806
X02897Y00796
X02985386Y00807212
X03000372Y00819912
X03107Y00806
X03107Y00796
X02852Y01072
X03195386Y00807212
X03210372Y00819912
X02963Y01244
X0296256Y01294699
X02998Y01338
X03013
X03028
X02868
X02853
X02838
X0280256Y01294699
X02803Y01244
X02643
X0264256Y01294699
X02678Y01338
X02693
X02708
X02467Y01309
X02478Y01296
X02479Y01271
X02466Y01258
X02385Y01266
Y01302
X02368
X02351
Y01284
Y01266
X02368
X02255896Y01304274
Y01336278
X02205Y01362
X02195
X02173Y01348
X02103Y01352
X02088
X02067
Y01333
Y01316
X02088
X0211Y01309
X02099Y01296
X02097Y01271
X02218Y01239
X02229Y01195
Y01575
X01712Y01558
Y01522
X01667Y0151
X01657
X01638Y01545
Y01555
X016Y01557
X01609Y0154
X01613Y01522
X01686Y01571
X01688Y01357
X01678
X01706Y01319
X01693431Y01305331
X01647502Y01307033
X01647101Y01270635
X01647Y01222255
X01622Y0122175
X01609Y01245
Y01255
X01593Y01198
X01692Y01223
X01583Y01198
X01566Y01212
X01537Y0151
X01525Y01546
Y01556
X01245108Y01583182
X01194308Y01485646
X01194054Y0145034
X01206414Y01405557
X01180846Y0140589
X01181Y01552
Y01562
X0104902Y0158623
X00977Y01544
X00965
X00977Y0153
Y01516
X00965
X00935Y01472
Y01434
Y01402
Y0137
X00896
X00856
X00815
Y01402
Y01437
Y01472
X00858
X00897
X00875Y01495
Y01504
X00874Y01557
X00865Y01564
X0083Y01577
X00923Y01566
X00777Y01574
X00791Y0154
X00765Y01523
Y01513
X00721Y01587
X00538Y01586
Y01571
Y01558
X0054Y01544
Y0153
Y01517
Y01502
X00524
Y01486
X00507Y01473
X00504Y01502
X00507Y01541
X00524
X00493Y01545
X0045Y01499
X00441
X00432
X00444Y01467
Y01434
X00446Y01407
X00466Y01401
X00496
X00507Y01412
Y01441
X0052Y01366
X0055Y0136
X00565Y01345
Y01332
X0058
X00595
Y01345
X00598Y01308
Y01286
Y01273
Y0126
X00575Y01276
X0055Y01288
X00547Y01264
X00517
X0049
X00496Y01246
X00477
X0049Y01232
X00465Y01264
X00441
Y01366
X00479
X0055Y01319
X00653Y01346
X00667
Y01357
Y01368
Y01378
X00647Y01427
X00626Y01445
Y01454
Y01463
X00616
Y01454
Y01445
X00722Y01305
X00687Y01235
X00678
X00669
X0066
Y01225
X00669
X00678
X00687
X00733Y01599
X00716Y01691
X00724Y01709
X00701Y01706
X00701Y01719
X00778Y01675
X00792
X00552Y01677
Y0165
Y0163
X00528Y01629
X00496
X00491Y01609
Y01599
X0047Y01629
X00443
Y01731
X00469
X00495
X00523
X00552Y0173
Y01704
X00594Y01616
X00582Y01603
X0067Y01851
X00683333
X00696667
X0071
Y0188
X00696667
X00683333
X0067
X00806Y01675
X0082
X0082Y01629
X00811
Y01619
X0082
X0083Y01599
Y01588
X00846Y01599
X00858
X0085Y01623
X00853Y01652
X00879Y01657
X00902
X00923Y01645
Y01614
Y01588
X01111Y01598
X01124
X0114
X01139Y01612
Y01627
X01111
Y01612
X0115Y01815
X01163
X01176
Y01826
Y01837
X0133Y01815
X01343
X01356
Y01826
Y01837
X01336076Y01627
Y01612
X01337076Y01598
X01321076
X01308076
Y01612
Y01627
X01475Y01715
Y01725
X01527Y01713
X01537
Y01689
X01598Y01725
X01639Y01713
X01649
X01648968Y01689354
X0175006Y01688846
X0175Y01713
X0174
X02067
Y01696
X02088
X0211Y01689
X02099Y01676
X02097Y01651
X02103Y01732
X02088
X02067
X02173Y01728
X02195Y01742
X02205
X02255896Y01716278
Y01684274
X02351Y01682
X02368
X02351Y01664
Y01646
X02368
X02218Y01619
X02385Y01646
Y01682
X02467Y01689
X02478Y01676
X02479Y01651
X02466Y01638
X02643Y01624
X0264256Y01674699
X02678Y01718
X02693
X02708
X02838
X02853
X02868
X0280256Y01674699
X02803Y01624
X02963
X0296256Y01674699
X02998Y01718
X03013
X03028
X03217Y0163
X03324Y01628
Y01638
Y01715
Y01725
T03
X00569Y01166
X00594
X0202Y013
Y01335
X00594Y01526
X00569
X01187Y01605
Y0164
X01387
Y01605
X0202Y0168
Y01715
T04
X014616Y00555
X01487
X014874Y00648
X01462
X00705866Y00879028
Y00904428
X00668528
Y00879028
X027846Y009519
X0281
Y009773
X027846
Y010027
X0281
Y010281
X027846
X0281Y01071921
X028354
X01583Y016376
Y01663
X0149
Y016376
T05
X00983Y01439
Y01489
X00623Y01657
Y01707
X00998Y01711
Y01661
T06
X031808Y004338
Y0051
X0313
X03130107Y00433767
X029708Y004338
X02920107Y00433767
X0292Y0051
X029708
X027608
X0271
X02710107Y00433767
X027608Y004338
X024708Y004338
X02420107Y00433767
X0242Y0051
X024708
X022608
X0221
X02210107Y00433767
X022608Y004338
X020508
X02000107Y00433767
X02Y0051
X020508
X013116Y006638
X012608
X0121
Y0074
X012608
X01311493Y00740033
X00962293
X009116Y0074
X008608
X0081
Y006638
X008608
X009116
X009624
X00962293Y00530033
X009116Y0053
X008608
X0081
Y004538
X008608
X009116
X009624
X005616Y006638
X005108
X0046
Y0074
X005108
X00561493Y00740033
X005616Y008738
X005108
X0046
Y0095
X005108
X00561493Y00950033
X0081Y0095
X008608
X009116
X00962293Y00950033
X009624Y008738
X009116
X008608
X0081
X0121
X012608
X013116
X01311493Y00950033
X012608Y0095
X0121
X0282Y014238
X028708
X02870693Y01500033
X0282Y015
X0298
X03030693Y01500033
X030308Y014238
X0298
X027108
X0266
Y015
X02710693Y01500033
X02522293
X024716Y015
X024208
Y014238
X024716
X025224
X0237
Y015
X02233893Y01500033
X021832Y015
X021324
X020816
X020308
Y014238
X020816
X021324
X021832
X02234
X0198
Y015
X0075Y018038
Y0188
X00570693Y01880033
X0052Y0188
Y018038
X005708
X008008
X00800693Y01880033
X0103Y0188
X01080693Y01880033
X010808Y018038
X0103
X0121
X012608
X01260693Y01880033
X0121Y0188
X0142
X014708
X01521598Y01879998
X01572398
Y01803798
X01521598
X014708Y018038
X0142
X01623198Y01803798
X01673998
X01724798
X01775598
X01775491Y01880032
X01724798Y01879998
X01673998
X01623198
X0198Y0188
Y018038
X020308
X020816
X021324
X021832
X02234
X02233893Y01880033
X021832Y0188
X021324
X020816
X020308
X0237
Y018038
X024208
X024716
X025224
X02522293Y01880033
X024716Y0188
X024208
X0266
X02710693Y01880033
X027108Y018038
X0266
X0282
X028708
X02870693Y01880033
X0282Y0188
X0298
X03030693Y01880033
X030308Y018038
X0298
X0318
X032308
X03230693Y01880033
X0318Y0188
T07
X0335Y0045
X019
X0045
X0331Y0085
Y0113
X0045Y0185
X01900165
X0335
M30
